<?xml version="1.0" encoding="UTF-8"?>
<svg width="24" height="24" viewBox="0 0 24 24" fill="none" xmlns="http://www.w3.org/2000/svg">
  <!-- Book Base -->
  <path d="M4 19.5V4.5C4 3.67 4.67 3 5.5 3H18.5C19.33 3 20 3.67 20 4.5V19.5C20 20.33 19.33 21 18.5 21H5.5C4.67 21 4 20.33 4 19.5Z" 
        fill="#0EA5E9" 
        stroke="#0EA5E9" 
        stroke-width="1.5" 
        stroke-linecap="round" 
        stroke-linejoin="round"/>
  
  <!-- Book Pages -->
  <path d="M4 16H20" 
        stroke="#FFFFFF" 
        stroke-width="1.5" 
        stroke-linecap="round"/>
  <path d="M4 12H20" 
        stroke="#FFFFFF" 
        stroke-width="1.5" 
        stroke-linecap="round"/>
  <path d="M4 8H20" 
        stroke="#FFFFFF" 
        stroke-width="1.5" 
        stroke-linecap="round"/>
  
  <!-- Graduation Cap -->
  <path d="M12 3L4 7L12 11L20 7L12 3Z" 
        fill="#0EA5E9" 
        stroke="#0EA5E9" 
        stroke-width="1.5" 
        stroke-linecap="round" 
        stroke-linejoin="round"/>
  
  <!-- Tassel -->
  <path d="M12 11V15" 
        stroke="#0EA5E9" 
        stroke-width="1.5" 
        stroke-linecap="round"/>
  <path d="M12 15C12 15 10 17 8 17" 
        stroke="#0EA5E9" 
        stroke-width="1.5" 
        stroke-linecap="round"/>
  <path d="M12 15C12 15 14 17 16 17" 
        stroke="#0EA5E9" 
        stroke-width="1.5" 
        stroke-linecap="round"/>
  
  <!-- Star -->
  <path d="M12 7L12.5 8.5L14 9L12.5 9.5L12 11L11.5 9.5L10 9L11.5 8.5L12 7Z" 
        fill="#FFFFFF"/>
</svg> 